Coordinates
nRows=8
nColumns=38

# SIMM Motion File Header:
name Coordinates
datacolumns 38
datarows 8
otherdata 1
range 1.53719999999999990000 1.54420000000000000000

Units are S.I. units (second, meters, Newtons, ...)
Angles are in degrees.

endheader
time	pelvis_tilt	pelvis_list	pelvis_rotation	pelvis_tx	pelvis_ty	pelvis_tz	hip_flexion_r	hip_adduction_r	hip_rotation_r	knee_angle_r	ankle_angle_r	subtalar_angle_r	mtp_angle_r	hip_flexion_l	hip_adduction_l	hip_rotation_l	knee_angle_l	ankle_angle_l	subtalar_angle_l	mtp_angle_l	lumbar_extension	lumbar_bending	lumbar_rotation	arm_flex_r	arm_add_r	arm_rot_r	elbow_flex_r	pro_sup_r	wrist_flex_r	wrist_dev_r	arm_flex_l	arm_add_l	arm_rot_l	elbow_flex_l	pro_sup_l	wrist_flex_l	wrist_dev_l
      1.53719999999999990000	     -0.40051085811677700000	     -1.65987433788090870000	     -5.56850155801603290000	      0.72456335503935987000	      0.94954905396706568000	     -0.36487326381621571000	     -1.27720795278993250000	      6.71630907963991500000	      4.63760170433848450000	    -31.33747453145275200000	     21.89722848330587700000	      0.00000000000000397045	      0.00000000000001318942	     37.47052780781350400000	     -1.60041648371050680000	     -1.73929868539282610000	   -116.99016113102935000000	      8.13297923486399200000	     -0.00000000000000716955	     -0.00000000000000377498	    -15.20522330881643000000	      2.54598659945433960000	      4.32431473335551340000	     -3.88558707895330670000	    -26.36910426065018200000	     -2.50577745694957790000	    118.00930829978496000000	     74.62870907962968700000	     -0.00000000000000041872	      0.00000000000000134552	    -38.96210345635598300000	    -19.33076069044750900000	     -6.33148390978413910000	    113.48636732991322000000	     98.30507617268411000000	      0.00000000000000698474	     -0.00000000000000146998
      1.53820000000000000000	     -0.39902572233576111000	     -1.55427566870545910000	     -5.60215847505208050000	      0.72483297840999350000	      0.95013483649738351000	     -0.36472743317912315000	     -1.76191539934728250000	      6.55444662753592140000	      4.72619439811437480000	    -30.88762541177762700000	     21.60518224964970100000	      0.00000000000000407393	      0.00000000000001336125	     37.70158624603379100000	     -1.51226094269694930000	     -1.76955180516025790000	   -116.56417165668375000000	      8.20215744144349660000	     -0.00000000000000727209	     -0.00000000000000386865	    -15.15962804450329000000	      2.40471509478192580000	      4.52051455818236200000	     -3.80573474754191960000	    -26.27014049921703500000	     -2.40801407810336520000	    118.18585594737256000000	     74.62601202709477400000	     -0.00000000000000044039	      0.00000000000000129343	    -39.12157719299681000000	    -19.40507386817888900000	     -6.37023918068705440000	    113.64117977343733000000	     98.09076853623712100000	      0.00000000000000707944	     -0.00000000000000149070
      1.53919999999999990000	     -0.39976515042838412000	     -1.44811131077316780000	     -5.63551764355011730000	      0.72510835891186343000	      0.95072253901168857000	     -0.36458203870057027000	     -2.24400983744944370000	      6.39119028706840100000	      4.81294693688231680000	    -30.43499124920889900000	     21.29955563204206100000	      0.00000000000000416856	      0.00000000000001352322	     37.92997123228842300000	     -1.42489543983295030000	     -1.80077402033454500000	   -116.13086682057919000000	      8.27055655750654320000	     -0.00000000000000738189	     -0.00000000000000396225	    -15.11083198782146100000	      2.26306381592685350000	      4.71484237943597590000	     -3.72584353264135610000	    -26.17439440545200900000	     -2.30371847239748020000	    118.36205895587082000000	     74.62030151672750800000	     -0.00000000000000046328	      0.00000000000000125292	    -39.28302725677938400000	    -19.48061820830536900000	     -6.41051666955194400000	    113.79648181002990000000	     97.88119886397800000000	      0.00000000000000717416	     -0.00000000000000151129
      1.54020000000000000000	     -0.40272163636703839000	     -1.34146786096735430000	     -5.66855547551246010000	      0.72538929868166124000	      0.95131189347258982000	     -0.36443715443545577000	     -2.72334447452774640000	      6.22663016203233880000	      4.89764313235467250000	    -29.97983336238390000000	     20.98025036655052100000	      0.00000000000000425729	      0.00000000000001367772	     38.15570860515786200000	     -1.33838097872841490000	     -1.83287932902186590000	   -115.69037920017892000000	      8.33799838471787420000	     -0.00000000000000749965	     -0.00000000000000403547	    -15.05887401433006000000	      2.12112771298310410000	      4.90721182780198100000	     -3.64578242872275910000	    -26.08186511570691100000	     -2.19287707563148480000	    118.53781392880120000000	     74.61162579496269100000	     -0.00000000000000049293	      0.00000000000000121556	    -39.44646581187949200000	    -19.55725998877833400000	     -6.45243294048351770000	    113.95217101860074000000	     97.67671425502852900000	      0.00000000000000726778	     -0.00000000000000153296
      1.54119999999999990000	     -0.40787652804105151000	     -1.23443241200967920000	     -5.70125058050176300000	      0.72567559608108123000	      0.95190265223012183000	     -0.36429284983210714000	     -3.19978375349350630000	      6.06085713267557400000	      4.98006135994831920000	    -29.52241495587630400000	     20.64717955449435700000	      0.00000000000000428958	      0.00000000000001382566	     38.37881087579455700000	     -1.25277701078320440000	     -1.86578430740481950000	   -115.24283695260898000000	      8.40430645250253330000	     -0.00000000000000762769	     -0.00000000000000408605	    -15.00380629867559900000	      1.97900022479024120000	      5.09754463456357510000	     -3.56542873244974560000	    -25.99254787861167800000	     -2.07549675618007210000	    118.71302159124610000000	     74.60005357728167000000	     -0.00000000000000051265	      0.00000000000000116089	    -39.61189796178959500000	    -19.63487022124009600000	     -6.49609607708209410000	    114.10815183688885000000	     97.47762370487997400000	      0.00000000000000736260	     -0.00000000000000155399
      1.54220000000000000000	     -0.41520083372849481000	     -1.12709226195721460000	     -5.73358378261842020000	      0.72596704595522754000	      0.95249458685534472000	     -0.36414918969631516000	     -3.67320268142535510000	      5.89396278181369750000	      5.05997465891012330000	    -29.06300078912237000000	     20.30027014130473300000	      0.00000000000000429666	      0.00000000000001397633	     38.59927794801122000000	     -1.16814111285678070000	     -1.89940823174865560000	   -114.78836371915109000000	      8.46930700453453330000	     -0.00000000000000775678	     -0.00000000000000412392	    -14.94569335655050700000	      1.83677312448917830000	      5.28577064564087080000	     -3.48466840328361730000	    -25.90643426951072900000	     -1.95160469593054730000	    118.88758695192341000000	     74.58567495696897300000	     -0.00000000000000052275	      0.00000000000000111062	    -39.77932161926220500000	    -19.71332489162519500000	     -6.54160525878098560000	    114.26433514060825000000	     97.28419781819432900000	      0.00000000000000745797	     -0.00000000000000157427
      1.54319999999999990000	     -0.42465570211101350000	     -1.01953470899193950000	     -5.76553801671957000000	      0.72626344006003896000	      0.95308748757627526000	     -0.36400623432234513000	     -4.14348658527709720000	      5.72603929370666350000	      5.13715066096202830000	    -28.60185642800848500000	     19.93946038114158600000	      0.00000000000000427071	      0.00000000000001414353	     38.81709747062577500000	     -1.08452863900156360000	     -1.93367307621606830000	   -114.32707850822742000000	      8.53282999423376690000	     -0.00000000000000788275	     -0.00000000000000416058	    -14.88461145745687400000	      1.69453644449710360000	      5.47182771702917400000	     -3.40339630752364110000	    -25.82351244397836300000	     -1.82124817016150600000	    119.06141947261519000000	     74.56860205754694000000	     -0.00000000000000052044	      0.00000000000000105492	    -39.94872735918371400000	    -19.79250516680397000000	     -6.58905039114739120000	    114.42063783660525000000	     97.09666876636904900000	      0.00000000000000755280	     -0.00000000000000159351
      1.54420000000000000000	     -0.43619367158651340000	     -0.91184657071088637000	     -5.79709833835699230000	      0.72656456722089491000	      0.95368116156018090000	     -0.36386403952582519000	     -4.61052975950261420000	      5.55717922864444260000	      5.21135195649391480000	    -28.13924850179525800000	     19.56470319511657200000	      0.00000000000000424433	      0.00000000000001427744	     39.03224615749750400000	     -1.00199227536332840000	     -1.96850365228037890000	   -113.85909568721260000000	      8.59470989497340730000	     -0.00000000000000800751	     -0.00000000000000419844	    -14.82064714726235600000	      1.55237816013247090000	      5.65566156328186680000	     -3.32151647392396440000	    -25.74376730568613100000	     -1.68449403482268180000	    119.23443315946285000000	     74.54896905814908300000	     -0.00000000000000051256	      0.00000000000000098820	    -40.12009853659116500000	    -19.87229755350039900000	     -6.63851199138439170000	    114.57698242198688000000	     96.91523108073435800000	      0.00000000000000764550	     -0.00000000000000161083
